# xmcd
#
# Track frame offsets:
#	150
#	12952
#	24447
#	33177
#	44420
#	59645
#	72100
#	85112
#	96655
#	110580
#	123577
#	135800
#
# Disc length: 2046 seconds
#
# Revision: 0
# Processed by: cddbd v1.5.2PL0 Copyright (c) Steve Scherf et al.
# Submitted via: EasyCDDAExtractor 15.3.0.1
#
DISCID=9d07fc0c
DTITLE=King Curtis and The Noble Knights - Soul Twist
DYEAR=1996
DGENRE=Soul
TTITLE0=Soul Twist
TTITLE1=Harmonica Twist
TTITLE2=The Monkey Shout
TTITLE3=What'd I Say (Part 1)
TTITLE4=What'd I Say (Part 2)
TTITLE5=Twistin' With the King
TTITLE6=Irresistible You
TTITLE7=Wobble Twist
TTITLE8=Mr. Crow
TTITLE9=I Know
TTITLE10=Twistin' Time
TTITLE11=Piping Hot
EXTD=
EXTT0=
EXTT1=
EXTT2=
EXTT3=
EXTT4=
EXTT5=
EXTT6=
EXTT7=
EXTT8=
EXTT9=
EXTT10=
EXTT11=
PLAYORDER=
